<svg xmlns="http://www.w3.org/2000/svg" viewBox="0 0 128 128" width="128" height="128"><g fill="#8e919b" stroke="#63656b" stroke-width="5" stroke-linejoin="round" stroke-linecap="round"><path d="M64.0 18.0L103.8 41.0L103.8 87.0L64.0 110.0L24.2 87.0L24.2 41.0Z" fill="none" stroke="#63656b" stroke-width="13"/><path d="M64.0 18.0L103.8 87.0L24.2 87.0Z" fill="none" stroke="#63656b" stroke-width="13"/><path d="M64.0 18.0L103.8 41.0L103.8 87.0L64.0 110.0L24.2 87.0L24.2 41.0Z" fill="none" stroke="#8e919b" stroke-width="3" stroke-linecap="round"/><path d="M64.0 18.0L103.8 87.0L24.2 87.0Z" fill="none" stroke="#8e919b" stroke-width="3" stroke-linecap="round"/><path d="M54.0 18.0a10 10 0 1 0 20 0a10 10 0 1 0 -20 0Z"/><path d="M93.8 41.0a10 10 0 1 0 20 0a10 10 0 1 0 -20 0Z"/><path d="M93.8 87.0a10 10 0 1 0 20 0a10 10 0 1 0 -20 0Z"/><path d="M54.0 110.0a10 10 0 1 0 20 0a10 10 0 1 0 -20 0Z"/><path d="M14.2 87.0a10 10 0 1 0 20 0a10 10 0 1 0 -20 0Z"/><path d="M14.2 41.0a10 10 0 1 0 20 0a10 10 0 1 0 -20 0Z"/></g></svg>
